<?xml version="1.0" standalone="no"?>
<!DOCTYPE svg PUBLIC "-//W3C//DTD SVG 20010904//EN"
 "http://www.w3.org/TR/2001/REC-SVG-20010904/DTD/svg10.dtd">
<svg version="1.0" xmlns="http://www.w3.org/2000/svg"
 width="739.000000pt" height="342.000000pt" viewBox="0 0 739.000000 342.000000"
 preserveAspectRatio="xMidYMid meet">

<g transform="translate(0.000000,342.000000) scale(0.100000,-0.100000)"
fill="#000000" stroke="none">
<path d="M511 3064 c-12 -15 -31 -57 -43 -93 -21 -63 -22 -88 -27 -511 -6
-437 -6 -446 -29 -495 -28 -61 -81 -117 -133 -140 l-39 -18 1 -91 0 -91 60
-28 c63 -30 98 -71 121 -138 7 -22 14 -189 18 -479 7 -474 9 -491 61 -595 36
-72 44 -72 44 3 0 80 32 159 89 216 l37 37 -3 412 c-3 368 -6 417 -22 460 -21
56 -99 144 -150 172 -20 11 -36 22 -35 25 0 3 28 23 62 46 73 47 118 114 136
200 7 37 11 194 11 446 l0 388 -41 37 c-22 20 -49 53 -59 73 -22 43 -43 150
-34 174 9 24 -2 20 -25 -10z"/>
<path d="M3334 3022 c-1 -81 -28 -145 -91 -211 l-43 -45 0 -320 c0 -177 5
-363 10 -415 15 -144 58 -223 156 -288 l54 -36 -47 -32 c-109 -73 -146 -139
-163 -280 -5 -50 -10 -242 -10 -427 l0 -337 30 -21 c36 -26 83 -92 99 -141 6
-19 12 -58 12 -87 1 -29 5 -52 10 -52 10 0 56 97 70 151 8 28 14 200 18 484 6
435 6 441 30 492 26 58 84 117 137 139 l34 14 0 90 0 89 -50 22 c-57 25 -110
80 -130 136 -10 29 -15 147 -20 473 -7 458 -11 499 -56 596 -39 83 -50 84 -50
6z"/>
<path d="M4052 1883 l3 -58 58 -3 57 -3 0 -164 0 -165 60 0 60 0 0 165 0 164
58 3 57 3 3 58 3 57 -181 0 -181 0 3 -57z"/>
<path d="M4471 1918 c6 -13 43 -76 80 -140 l69 -117 0 -85 0 -86 60 0 60 0 0
86 0 86 76 131 c42 73 78 135 81 140 2 4 -25 7 -62 7 l-65 0 -28 -46 c-15 -25
-35 -59 -45 -76 l-19 -31 -42 74 -42 74 -67 3 -68 3 12 -23z"/>
<path d="M4950 1715 l0 -225 60 0 60 0 0 60 0 60 43 0 c69 0 112 17 150 60 60
65 61 142 4 207 -46 53 -80 63 -207 63 l-110 0 0 -225z m240 105 c11 -11 20
-31 20 -45 0 -41 -33 -65 -90 -65 l-50 0 0 65 0 65 50 0 c37 0 55 -5 70 -20z"/>
<path d="M5370 1715 l0 -225 140 0 140 0 0 45 0 45 -80 0 -80 0 0 45 0 45 70
0 70 0 0 50 0 50 -70 0 -70 0 0 35 0 35 80 0 80 0 0 50 0 50 -140 0 -140 0 0
-225z"/>
<path d="M5887 1926 c-57 -21 -103 -61 -127 -111 -31 -65 -26 -165 13 -223 78
-118 246 -134 347 -33 93 94 93 218 0 311 -66 66 -148 86 -233 56z m140 -11
c36 -11 62 -28 90 -58 80 -87 78 -209 -5 -290 -97 -94 -249 -80 -327 31 -27
39 -30 52 -30 116 0 62 4 78 27 114 31 46 59 68 116 88 48 17 68 17 129 -1z"/>
<path d="M6282 1713 c1 -126 4 -186 5 -135 l4 92 67 0 67 0 53 -91 c30 -50 56
-89 59 -86 2 3 -18 44 -46 92 -44 74 -49 86 -34 91 65 19 113 74 113 128 0 45
-31 97 -71 118 -26 14 -56 18 -126 18 l-93 0 2 -227z m177 211 c41 -8 86 -54
95 -94 7 -40 -13 -90 -49 -118 -24 -19 -40 -22 -121 -22 l-94 0 0 113 c0 63 3
117 7 120 8 9 120 9 162 1z"/>
<path d="M6662 1713 l3 -228 2 218 c2 119 7 217 11 217 3 0 55 -48 114 -107
l106 -106 114 107 113 107 5 -218 6 -218 2 228 c1 125 -2 227 -6 227 -4 0 -28
-21 -52 -46 -25 -25 -75 -73 -112 -106 l-68 -60 -112 106 c-61 58 -115 106
-120 106 -4 0 -7 -102 -6 -227z"/>
</g>
</svg>
