<svg xmlns="http://www.w3.org/2000/svg" version="1.1" xmlns:xlink="http://www.w3.org/1999/xlink" xmlns:svgjs="http://svgjs.com/svgjs" width="24" height="24"><svg xmlns="http://www.w3.org/2000/svg" width="24" height="24" viewBox="0 0 24 24" fill="none" stroke="#00ff00" stroke-width="2" stroke-linecap="round" stroke-linejoin="round" class="lucide lucide-thumbs-up"><path d="M7 10v12"></path><path d="M15 5.88 14 10h5.83a2 2 0 0 1 1.92 2.56l-2.33 8A2 2 0 0 1 17.5 22H4a2 2 0 0 1-2-2v-8a2 2 0 0 1 2-2h2.76a2 2 0 0 0 1.79-1.11L12 2h0a3.13 3.13 0 0 1 3 3.88Z"></path></svg><style>@media (prefers-color-scheme: light) { :root { filter: contrast(1) brightness(0.9); } }
</style></svg>